<svg version="1.1" id="Layer_1" xmlns="http://www.w3.org/2000/svg" x="0px" y="0px" width="212px" height="40px" viewBox="0 0 212 40"
  enable-background="new 0 0 212 40" space="preserve">
  <g>
    <path fill-rule="evenodd" clip-rule="evenodd" fill="#fff" d="M42.148,10.151c-1.578-4.037-5.504-6.899-10.101-6.899
		c-0.604,0-1.196,0.052-1.773,0.147c-1.679-1.208-3.737-1.922-5.963-1.922c-1.882,0-3.643,0.511-5.157,1.398
		c-0.584-0.098-1.183-0.151-1.795-0.151c-4.628,0-8.575,2.911-10.113,7.002C4.11,11.544,2,14.935,2,18.821
		c0,4.884,2.736,8.504,7.846,10.17c3.498,1.14,8.362,2.227,14.16,3.002v-5.956c-0.774,0.036-1.553,0.061-2.326,0.078
		c-2.094-2.929-1.838-5.046-1.661-5.753c0.389-0.042,0.667-0.121,0.912-0.215c0.369-0.142,0.58-0.26,0.58-0.58
		c0-0.321-0.26-0.58-0.58-0.58c0,0-0.905,0.249-1.693,0.249c-0.756,0-1.619-0.345-1.619-0.345c-0.32,0-0.506,0.355-0.506,0.676
		c0,0.32,0.307,0.507,0.643,0.612c0.25,0.078,0.585,0.16,1.051,0.197c-0.11,0.322-0.21,0.756-0.238,0.979
		c-0.037,0.288-0.456,2.011,1.206,4.754c-3.262-0.146-4.213-0.191-7.755-1.58c-3.542-1.389-4.901-3.151-4.901-6.152
		c0-2.713,1.713-5.021,4.114-5.916c-0.033,0.203-0.062,0.406-0.081,0.611c-0.239,2.528,0.619,5.152,0.619,5.152
		s0.188,0.673,0.515,0.704c0.328,0.031,0.956-0.22,0.77-0.668c-0.186-0.448-0.952-2.589-0.712-5.138
		c0.15-1.589,0.432-3.178,1.197-4.131c0.765-0.953,2.649-1.698,4.317-1.698c0.67,0,1.312,0.108,1.917,0.302
		c-0.177,0.4-0.29,0.693-0.344,0.823c-0.205,0.496-0.278,0.891,0.028,1.202c0.306,0.311,0.974,0.21,1.099-0.096
		c0.067-0.163,0.585-1.758,1.105-2.304c0.52-0.546,2.243-0.996,3.542-0.996c1.778,0,3.397,0.68,4.613,1.792
		c-2.944,1.539-3.611,3.571-3.72,3.859c-0.092,0.243-0.354,0.946-0.413,1.457c-0.823-0.283-1.66-0.407-1.66-0.407
		c-0.367-0.145-0.789-0.042-0.943,0.23c-0.154,0.273,0.019,0.611,0.386,0.757c0,0,1.042,0.154,1.944,0.512
		c0.866,0.343,1.595,0.892,1.595,0.892c0.367,0.146,0.789,0.043,0.943-0.23c0.154-0.272-0.019-0.611-0.386-0.757
		c0,0-0.308-0.231-0.76-0.486c0.041-0.221,0.898-3.307,4.046-4.636c3.148-1.329,7.179,1.645,8.012,4.249
		c-1.368-0.64-2.448-0.937-2.642-0.996c-0.341-0.104-0.889-0.158-1.169,0.175c-0.28,0.334-0.091,1.008,0.098,1.112
		c0.167,0.092,4.643,1.535,5.214,2.386c0.571,0.851,0.801,1.919,0.801,3.018c0,1.011-0.249,1.963-0.681,2.804l0.003,0.021
		c-1.944,0.415-3.773,0.4-4.581,0.366c0.001-0.4-0.057-0.715-0.093-0.873c-0.066-0.291-0.233-0.733-0.514-0.87
		c-0.281-0.137-0.987-0.208-0.888,0.432c0.1,0.639,0.599,1.049,0.297,1.972c-0.289,0.886-1.039,1.32-1.494,1.689
		c-0.455,0.369,0.006,0.847,0.287,0.983c0.281,0.137,0.76-0.048,1.044-0.347c0.251-0.264,0.756-0.802,1.069-1.536
		c0.145,0.036,0.303,0.058,0.463,0.074c0.268,0.027,1.421,0.113,2.956-0.048l-7.293,7.293v-5.723c0-1.469-1.191-2.659-2.659-2.659
		c-1.469,0-2.659,1.19-2.659,2.659v11.678c0,0.47,0.123,0.91,0.336,1.293c0.13,0.329,0.326,0.637,0.592,0.903
		c1.038,1.038,2.722,1.038,3.761,0l11.523-11.524c2.373-2.102,3.87-5.17,3.87-8.59C46.501,15.502,44.799,12.254,42.148,10.151z" />
    <path fill-rule="evenodd" clip-rule="evenodd" fill="#fff" d="M29.391,20.161c0.611,0.355,1.036-0.147,0.738-0.63
		c-0.299-0.483-0.819-0.634-0.819-0.634s-0.969-0.294-1.897-0.21c-0.967,0.088-1.938,0.662-1.938,0.662s-0.633,0.342-0.648,0.654
		c-0.014,0.312,0.402,0.558,0.771,0.501c0.37-0.057,0.866-0.598,1.834-0.686C28.36,19.735,28.78,19.806,29.391,20.161z" />
    <path fill-rule="evenodd" clip-rule="evenodd" fill="#fff" d="M16.214,13.183c0,0-0.666-0.231-0.921-0.05
		c-0.256,0.18-0.244,0.561,0.025,0.849c0,0,1.004,0.317,1.666,1.027c0.635,0.681,0.811,1.243,0.931,1.757
		c0.12,0.514,0.695,0.376,0.95,0.196c0.255-0.18-0.002-1.036-0.002-1.036s-0.319-0.889-0.955-1.57
		C17.247,13.646,16.214,13.183,16.214,13.183z" />
    <path fill-rule="evenodd" clip-rule="evenodd" fill="#fff" d="M34.09,19.051c0,0,0.605,0.36,0.892,0.235
		c0.286-0.125,0.352-0.5,0.147-0.836c0,0-0.919-0.513-1.425-1.343c-0.485-0.796-0.344-1.44-0.557-1.909
		c-0.213-0.469-0.604-0.509-0.891-0.384c-0.286,0.125-0.208,1.015-0.208,1.015s0.133,0.935,0.618,1.731
		C33.171,18.389,34.09,19.051,34.09,19.051z" />
  </g>
  <g>
    <g>
      <path fill="#fff" d="M57.964,7.295h-8.479v-3.09h20.326v3.09h-8.479v23.932h-3.368V7.295z" />
      <path fill="#fff" d="M61.664,31.56h-4.032V7.628h-8.479V3.873h20.991v3.755h-8.479V31.56z M58.296,30.895H61V6.963h8.479V4.537
			H49.817v2.426h8.479V30.895z" />
    </g>
    <g>
      <path fill="#fff" d="M80.47,30.752c-0.608,0.185-1.235,0.344-1.882,0.476c-0.648,0.132-1.361,0.251-2.14,0.357
			c-0.78,0.105-1.592,0.158-2.437,0.158c-1.321,0-2.549-0.185-3.685-0.554c-1.136-0.37-2.127-0.964-2.972-1.783
			c-0.846-0.818-1.512-1.882-2.001-3.19c-0.489-1.308-0.733-2.912-0.733-4.814c0-1.717,0.238-3.229,0.713-4.537
			c0.475-1.307,1.129-2.403,1.961-3.289c0.832-0.885,1.809-1.552,2.932-2.001c1.122-0.449,2.344-0.674,3.665-0.674
			c1.294,0,2.417,0.251,3.368,0.753c0.951,0.502,1.737,1.183,2.358,2.041c0.62,0.859,1.083,1.862,1.387,3.011
			c0.303,1.149,0.456,2.358,0.456,3.626l-0.594,1.743H68.068c0,0.819,0.105,1.638,0.317,2.457c0.211,0.819,0.574,1.559,1.09,2.219
			c0.515,0.661,1.189,1.195,2.021,1.605c0.832,0.41,1.869,0.614,3.11,0.614c0.792,0,1.519-0.046,2.179-0.139
			c0.66-0.092,1.234-0.198,1.724-0.317c0.488-0.119,0.944-0.258,1.367-0.416L80.47,30.752z M78.172,19.539
			c0-0.184-0.04-0.594-0.119-1.228c-0.079-0.634-0.264-1.294-0.555-1.981c-0.291-0.687-0.74-1.301-1.347-1.842
			c-0.608-0.541-1.413-0.812-2.417-0.812c-1.109,0-2.021,0.232-2.734,0.693c-0.713,0.463-1.281,1.011-1.704,1.644
			c-0.423,0.634-0.713,1.282-0.872,1.942c-0.159,0.661-0.238,1.189-0.238,1.585H78.172z" />
      <path fill="#fff" d="M74.011,32.075c-1.35,0-2.624-0.192-3.788-0.571c-1.18-0.384-2.223-1.01-3.1-1.86
			c-0.877-0.849-1.577-1.963-2.081-3.312c-0.5-1.337-0.754-2.996-0.754-4.931c0-1.748,0.247-3.312,0.733-4.65
			c0.488-1.343,1.172-2.488,2.031-3.403c0.862-0.916,1.888-1.617,3.051-2.082c1.157-0.463,2.432-0.697,3.789-0.697
			c1.342,0,2.527,0.266,3.523,0.791c0.992,0.524,1.823,1.243,2.472,2.14c0.642,0.889,1.126,1.939,1.439,3.121
			c0.31,1.173,0.467,2.422,0.467,3.711v0.055l-0.689,2.021H68.406c0.025,0.68,0.126,1.365,0.3,2.041
			c0.199,0.771,0.545,1.477,1.03,2.097c0.482,0.618,1.123,1.126,1.906,1.511c0.781,0.385,1.778,0.58,2.964,0.58
			c0.776,0,1.494-0.045,2.133-0.135c0.648-0.091,1.217-0.195,1.691-0.311c0.474-0.116,0.921-0.252,1.329-0.404l0.357-0.134
			l0.745,3.327l-0.295,0.09c-0.614,0.187-1.257,0.349-1.912,0.483c-0.655,0.133-1.382,0.255-2.161,0.36
			C75.699,32.02,74.864,32.075,74.011,32.075z M73.893,11.233c-1.272,0-2.463,0.219-3.542,0.65c-1.072,0.429-2.019,1.075-2.813,1.92
			c-0.797,0.848-1.434,1.916-1.891,3.175c-0.46,1.265-0.693,2.753-0.693,4.423c0,1.854,0.24,3.435,0.712,4.698
			c0.469,1.256,1.115,2.288,1.921,3.067c0.804,0.779,1.761,1.353,2.843,1.706c1.097,0.357,2.302,0.538,3.582,0.538
			c0.823,0,1.628-0.052,2.392-0.155c0.764-0.104,1.477-0.223,2.118-0.353c0.53-0.108,1.052-0.236,1.556-0.381l-0.445-1.986
			c-0.331,0.111-0.681,0.212-1.046,0.3c-0.496,0.121-1.086,0.229-1.756,0.323c-0.67,0.094-1.418,0.142-2.225,0.142
			c-1.288,0-2.384-0.218-3.257-0.648c-0.873-0.43-1.592-1.002-2.136-1.699c-0.541-0.693-0.928-1.48-1.149-2.34
			c-0.217-0.84-0.328-1.695-0.328-2.54v-0.332h12.892l0.5-1.466c-0.004-1.212-0.154-2.385-0.445-3.486
			c-0.292-1.103-0.741-2.08-1.335-2.902c-0.588-0.813-1.343-1.466-2.243-1.941C76.206,11.474,75.125,11.233,73.893,11.233z
			 M78.504,19.871H67.855v-0.332c0-0.426,0.081-0.97,0.247-1.662c0.167-0.696,0.476-1.385,0.918-2.048
			c0.445-0.668,1.051-1.253,1.799-1.739c0.766-0.496,1.746-0.747,2.915-0.747c1.082,0,1.969,0.302,2.638,0.896
			c0.641,0.572,1.123,1.232,1.432,1.961c0.301,0.713,0.496,1.41,0.578,2.07c0.082,0.653,0.122,1.068,0.122,1.269V19.871z
			 M68.536,19.206h9.283c-0.017-0.187-0.046-0.459-0.096-0.855c-0.075-0.599-0.254-1.236-0.531-1.893
			c-0.27-0.638-0.695-1.218-1.262-1.724c-0.543-0.483-1.281-0.728-2.196-0.728c-1.038,0-1.897,0.215-2.554,0.64
			c-0.672,0.436-1.213,0.957-1.608,1.55c-0.399,0.598-0.676,1.215-0.825,1.835C68.637,18.491,68.567,18.884,68.536,19.206z" />
    </g>
    <g>
      <path fill="#fff" d="M94.853,29.365c-1.242,0.713-2.397,1.288-3.467,1.723c-1.07,0.436-2.226,0.654-3.467,0.654
			c-1.77,0-3.177-0.43-4.22-1.288c-1.044-0.858-1.565-2.278-1.565-4.259c0-1.03,0.264-1.928,0.792-2.694
			c0.528-0.766,1.221-1.407,2.08-1.922c0.858-0.515,1.829-0.917,2.912-1.208c1.083-0.29,2.192-0.475,3.328-0.555
			c0.475-0.053,1.096-0.099,1.862-0.139c0.766-0.04,1.36-0.072,1.783-0.099c0-0.924-0.027-1.75-0.079-2.476
			c-0.053-0.726-0.212-1.347-0.476-1.862c-0.264-0.515-0.654-0.905-1.169-1.169c-0.515-0.264-1.248-0.396-2.199-0.396
			c-0.767,0-1.506,0.047-2.219,0.139c-0.713,0.093-1.347,0.192-1.902,0.297c-0.661,0.133-1.268,0.277-1.823,0.436l-0.634-2.734
			c0.66-0.158,1.373-0.303,2.14-0.436c0.66-0.132,1.426-0.244,2.298-0.337c0.872-0.092,1.809-0.139,2.813-0.139
			c1.347,0,2.437,0.198,3.269,0.594c0.832,0.396,1.479,0.931,1.942,1.605c0.462,0.674,0.779,1.44,0.951,2.298
			c0.171,0.859,0.257,1.763,0.257,2.714v9.509c0,0.37,0.006,0.76,0.02,1.169c0.013,0.41,0.04,0.812,0.079,1.209
			c0.04,0.396,0.085,0.806,0.139,1.228l-3.051,0.317L94.853,29.365z M94.892,22.075c-0.529,0.027-1.03,0.053-1.506,0.079
			c-0.475,0.027-0.945,0.059-1.407,0.099c-0.463,0.04-0.878,0.086-1.248,0.139c-1.902,0.238-3.249,0.654-4.041,1.248
			c-0.792,0.594-1.189,1.446-1.189,2.556c0,0.925,0.284,1.618,0.852,2.08c0.568,0.463,1.314,0.694,2.239,0.694
			c1.268,0,2.397-0.218,3.388-0.654c0.991-0.436,1.961-1.01,2.912-1.724V22.075z" />
      <path fill="#fff" d="M87.919,32.075c-1.84,0-3.331-0.459-4.431-1.363c-1.119-0.92-1.686-2.439-1.686-4.516
			c0-1.094,0.286-2.064,0.851-2.883c0.553-0.802,1.287-1.481,2.183-2.018c0.878-0.527,1.886-0.946,2.997-1.245
			c1.1-0.295,2.241-0.485,3.391-0.565c0.472-0.052,1.105-0.1,1.868-0.139c0.591-0.031,1.08-0.057,1.467-0.08
			c-0.005-0.786-0.031-1.505-0.077-2.14c-0.05-0.678-0.198-1.262-0.44-1.735c-0.234-0.456-0.569-0.791-1.025-1.025
			c-0.466-0.239-1.155-0.36-2.047-0.36c-0.746,0-1.478,0.046-2.176,0.136c-0.705,0.092-1.338,0.191-1.883,0.294
			c-0.649,0.13-1.254,0.275-1.793,0.429l-0.336,0.096l-0.787-3.396l0.321-0.077c0.658-0.158,1.385-0.306,2.16-0.44
			c0.656-0.131,1.439-0.246,2.32-0.34c0.881-0.093,1.839-0.141,2.848-0.141c1.391,0,2.538,0.211,3.412,0.627
			c0.881,0.42,1.579,0.997,2.073,1.717c0.485,0.708,0.823,1.522,1.003,2.421c0.175,0.877,0.264,1.812,0.264,2.779v9.509
			c0,0.367,0.006,0.753,0.02,1.158c0.013,0.398,0.039,0.797,0.078,1.187c0.039,0.394,0.085,0.8,0.138,1.22l0.043,0.337l-3.695,0.384
			l-0.367-2.022c-1.098,0.613-2.138,1.121-3.098,1.512C90.407,31.846,89.198,32.075,87.919,32.075z M90.97,13.342
			c1.013,0,1.782,0.142,2.351,0.433c0.576,0.295,1.017,0.737,1.313,1.313c0.283,0.552,0.455,1.222,0.511,1.99
			c0.053,0.735,0.08,1.576,0.08,2.501v0.312l-0.311,0.02c-0.424,0.027-1.019,0.06-1.787,0.099c-0.75,0.039-1.37,0.085-1.843,0.137
			c-1.122,0.078-2.22,0.262-3.279,0.545c-1.051,0.283-2.002,0.677-2.827,1.173c-0.814,0.488-1.479,1.103-1.978,1.825
			c-0.487,0.706-0.734,1.549-0.734,2.506c0,1.869,0.486,3.215,1.444,4.003c0.978,0.804,2.327,1.212,4.009,1.212
			c1.193,0,2.317-0.212,3.341-0.629c1.051-0.428,2.204-1.001,3.427-1.704l0.408-0.235l0.425,2.34l2.408-0.25
			c-0.037-0.307-0.069-0.607-0.098-0.9c-0.041-0.404-0.068-0.819-0.081-1.231c-0.014-0.412-0.02-0.805-0.02-1.179v-9.509
			c0-0.924-0.085-1.815-0.251-2.649c-0.163-0.81-0.465-1.542-0.899-2.175c-0.427-0.622-1.036-1.124-1.81-1.493
			c-0.783-0.373-1.835-0.562-3.126-0.562c-0.986,0-1.921,0.046-2.778,0.137c-0.86,0.091-1.623,0.203-2.268,0.332
			c-0.644,0.111-1.248,0.231-1.806,0.358l0.481,2.074c0.467-0.124,0.974-0.242,1.512-0.349c0.561-0.106,1.207-0.207,1.924-0.301
			C89.435,13.39,90.196,13.342,90.97,13.342z M88.592,29.301c-0.999,0-1.823-0.258-2.449-0.768
			c-0.646-0.525-0.974-1.312-0.974-2.338c0-1.214,0.445-2.164,1.322-2.821c0.847-0.635,2.22-1.065,4.2-1.312
			c0.371-0.053,0.797-0.1,1.261-0.14c0.465-0.04,0.938-0.073,1.417-0.1c0.476-0.026,0.978-0.053,1.507-0.079l0.349-0.018v5.032
			l-0.133,0.1c-0.967,0.725-1.969,1.318-2.978,1.762C91.086,29.072,89.901,29.301,88.592,29.301z M94.56,22.424
			c-0.401,0.021-0.786,0.041-1.155,0.061c-0.472,0.027-0.938,0.059-1.396,0.098c-0.452,0.039-0.866,0.085-1.23,0.137
			c-1.841,0.23-3.148,0.629-3.889,1.185c-0.71,0.533-1.056,1.282-1.056,2.29c0,0.828,0.238,1.424,0.729,1.822
			c0.505,0.411,1.187,0.619,2.029,0.619c1.216,0,2.311-0.21,3.254-0.625c0.917-0.404,1.829-0.937,2.714-1.587V22.424z" />
    </g>
    <g>
      <path fill="#fff" d="M114.03,14.19c-0.449-0.105-1.07-0.218-1.862-0.337c-0.792-0.119-1.598-0.178-2.417-0.178
			c-1.189,0-2.159,0.238-2.912,0.713c-0.753,0.475-1.341,1.09-1.763,1.842c-0.423,0.753-0.713,1.585-0.871,2.496
			c-0.159,0.911-0.238,1.803-0.238,2.675c0,1.347,0.171,2.503,0.515,3.467c0.343,0.965,0.799,1.75,1.367,2.358
			c0.568,0.608,1.222,1.05,1.961,1.327c0.739,0.277,1.519,0.416,2.338,0.416c0.555,0,1.09-0.033,1.605-0.099
			c0.515-0.066,0.991-0.145,1.426-0.238c0.436-0.092,0.852-0.204,1.248-0.337l0.634,2.655c-0.555,0.158-1.07,0.29-1.545,0.396
			c-0.475,0.105-1.037,0.198-1.684,0.277c-0.648,0.079-1.341,0.119-2.08,0.119c-1.453,0-2.748-0.185-3.883-0.554
			c-1.136-0.37-2.094-0.964-2.873-1.783c-0.78-0.818-1.374-1.888-1.783-3.209c-0.41-1.321-0.614-2.932-0.614-4.834
			c0-1.849,0.257-3.44,0.773-4.774c0.515-1.334,1.195-2.417,2.041-3.249c0.845-0.832,1.816-1.446,2.912-1.842
			c1.096-0.396,2.239-0.594,3.427-0.594c0.634,0,1.248,0.033,1.843,0.099c0.594,0.066,1.115,0.139,1.565,0.218
			c0.528,0.106,1.03,0.212,1.506,0.317L114.03,14.19z" />
      <path fill="#fff" d="M109.751,32.075c-1.481,0-2.822-0.192-3.986-0.571c-1.185-0.386-2.198-1.015-3.011-1.87
			c-0.811-0.852-1.437-1.976-1.86-3.34c-0.417-1.345-0.629-3.004-0.629-4.932c0-1.881,0.267-3.528,0.795-4.894
			c0.53-1.373,1.243-2.506,2.118-3.366c0.875-0.862,1.896-1.507,3.032-1.918c1.127-0.408,2.318-0.614,3.54-0.614
			c0.639,0,1.272,0.034,1.879,0.101c0.603,0.067,1.137,0.142,1.586,0.221c0.538,0.108,1.042,0.214,1.52,0.32l0.33,0.073
			l-0.789,3.305l-0.322-0.075c-0.445-0.104-1.063-0.216-1.836-0.332c-0.773-0.116-1.57-0.175-2.368-0.175
			c-1.119,0-2.039,0.223-2.735,0.662c-0.703,0.444-1.258,1.024-1.651,1.724c-0.402,0.716-0.683,1.52-0.834,2.39
			c-0.155,0.888-0.233,1.768-0.233,2.617c0,1.304,0.167,2.433,0.496,3.356c0.326,0.916,0.762,1.671,1.297,2.242
			c0.529,0.567,1.147,0.985,1.835,1.243c0.698,0.262,1.445,0.395,2.221,0.395c0.54,0,1.066-0.032,1.562-0.096
			c0.508-0.065,0.979-0.143,1.4-0.233c0.422-0.089,0.83-0.199,1.212-0.327l0.344-0.115l0.792,3.317l-0.306,0.087
			c-0.559,0.16-1.086,0.294-1.565,0.401c-0.49,0.108-1.067,0.203-1.716,0.283C111.213,32.034,110.5,32.075,109.751,32.075z
			 M109.751,11.233c-1.145,0-2.26,0.193-3.314,0.574c-1.046,0.378-1.985,0.973-2.792,1.767c-0.807,0.794-1.468,1.848-1.964,3.132
			c-0.498,1.289-0.75,2.856-0.75,4.655c0,1.861,0.202,3.454,0.599,4.736c0.392,1.266,0.966,2.302,1.707,3.079
			c0.736,0.774,1.657,1.345,2.735,1.696c1.097,0.357,2.369,0.538,3.78,0.538c0.722,0,1.408-0.039,2.04-0.116
			c0.628-0.077,1.184-0.168,1.652-0.272c0.378-0.084,0.787-0.187,1.22-0.305l-0.477-1.997c-0.303,0.09-0.617,0.169-0.939,0.238
			c-0.439,0.093-0.928,0.175-1.453,0.242c-0.525,0.067-1.079,0.102-1.647,0.102c-0.856,0-1.681-0.147-2.455-0.437
			c-0.786-0.295-1.488-0.77-2.087-1.412c-0.597-0.639-1.081-1.47-1.437-2.473c-0.354-0.994-0.534-2.198-0.534-3.578
			c0-0.887,0.082-1.806,0.243-2.731c0.164-0.945,0.47-1.82,0.909-2.602c0.447-0.798,1.078-1.457,1.875-1.961
			c0.804-0.507,1.843-0.765,3.09-0.765c0.831,0,1.661,0.061,2.466,0.182c0.62,0.093,1.145,0.184,1.566,0.271l0.48-2.008
			c-0.374-0.081-0.764-0.162-1.169-0.243c-0.428-0.075-0.948-0.148-1.537-0.214C110.973,11.266,110.366,11.233,109.751,11.233z" />
    </g>
    <g>
      <path fill="#fff" d="M117.358,1.55l3.17-0.357v12.6c0.792-0.528,1.578-0.991,2.358-1.387c0.779-0.396,1.578-0.746,2.397-1.05
			c0.819-0.303,1.611-0.456,2.377-0.456c1.083,0,1.987,0.126,2.714,0.376c0.726,0.251,1.314,0.667,1.763,1.248
			c0.449,0.581,0.773,1.347,0.97,2.298c0.198,0.951,0.297,2.14,0.297,3.566v12.838h-3.17V18.746c0-0.793-0.014-1.499-0.04-2.12
			c-0.027-0.62-0.139-1.149-0.337-1.585c-0.198-0.436-0.502-0.773-0.911-1.01c-0.41-0.238-0.984-0.357-1.724-0.357
			c-0.687,0-1.426,0.152-2.219,0.456c-0.792,0.304-1.545,0.654-2.258,1.05c-0.714,0.396-1.453,0.859-2.219,1.387v14.66h-3.17V1.55z" />
      <path fill="#fff" d="M133.737,31.56h-3.834V18.746c0-0.774-0.013-1.482-0.039-2.106c-0.025-0.575-0.128-1.067-0.307-1.462
			c-0.171-0.375-0.424-0.656-0.776-0.86c-0.356-0.207-0.88-0.312-1.556-0.312c-0.641,0-1.348,0.146-2.1,0.434
			c-0.775,0.297-1.521,0.644-2.216,1.03c-0.656,0.365-1.345,0.792-2.048,1.272V31.56h-3.834V1.253l3.834-0.431v12.36
			c0.629-0.398,1.258-0.757,1.875-1.071c0.784-0.399,1.602-0.757,2.432-1.065c0.853-0.316,1.692-0.476,2.493-0.476
			c1.114,0,2.064,0.133,2.822,0.395c0.785,0.271,1.43,0.728,1.918,1.359c0.478,0.62,0.826,1.439,1.033,2.434
			c0.202,0.968,0.304,2.191,0.304,3.634V31.56z M130.568,30.895h2.505V18.39c0-1.397-0.098-2.574-0.29-3.498
			c-0.187-0.896-0.492-1.624-0.908-2.163c-0.407-0.526-0.949-0.909-1.609-1.137c-0.689-0.238-1.565-0.358-2.605-0.358
			c-0.722,0-1.483,0.146-2.262,0.435c-0.806,0.299-1.601,0.647-2.362,1.035c-0.762,0.388-1.544,0.848-2.324,1.367l-0.517,0.344
			V1.565l-2.505,0.282v29.048h2.505V16.393l0.144-0.099c0.771-0.532,1.527-1.004,2.246-1.404c0.722-0.401,1.496-0.761,2.3-1.07
			c0.828-0.317,1.615-0.478,2.338-0.478c0.806,0,1.424,0.131,1.89,0.401c0.469,0.272,0.821,0.663,1.047,1.16
			c0.215,0.473,0.338,1.048,0.366,1.708c0.027,0.633,0.04,1.351,0.04,2.134V30.895z" />
    </g>
    <g>
      <path fill="#fff" d="M137.209,1.55l3.17-0.357v11.807c0.581-0.396,1.188-0.739,1.822-1.03c0.528-0.264,1.123-0.508,1.783-0.733
			c0.66-0.224,1.321-0.337,1.981-0.337c1.083,0,2.106,0.212,3.071,0.634c0.964,0.423,1.809,1.057,2.536,1.902
			c0.726,0.846,1.301,1.915,1.724,3.209c0.422,1.295,0.634,2.827,0.634,4.596c0,1.955-0.271,3.6-0.812,4.933
			c-0.542,1.334-1.268,2.411-2.179,3.229c-0.911,0.819-1.948,1.413-3.11,1.783c-1.163,0.37-2.351,0.554-3.566,0.554
			c-1.215,0-2.265-0.086-3.15-0.257c-0.885-0.172-1.618-0.363-2.199-0.575c-0.687-0.264-1.255-0.555-1.704-0.872V1.55z
			 M140.379,28.295c0.343,0.132,0.713,0.244,1.109,0.337c0.396,0.093,0.825,0.172,1.288,0.238c0.462,0.066,0.957,0.099,1.486,0.099
			c1.215,0,2.232-0.172,3.051-0.515c0.818-0.343,1.466-0.845,1.941-1.506c0.476-0.66,0.812-1.459,1.01-2.397
			c0.198-0.937,0.297-1.987,0.297-3.15c0-0.924-0.099-1.849-0.297-2.773c-0.198-0.924-0.509-1.75-0.931-2.476
			c-0.423-0.726-0.945-1.321-1.565-1.783c-0.621-0.462-1.341-0.693-2.16-0.693c-0.555,0-1.136,0.113-1.743,0.337
			c-0.608,0.225-1.176,0.482-1.704,0.773c-0.608,0.317-1.202,0.674-1.783,1.07V28.295z" />
      <path fill="#fff" d="M144.261,32.739c-1.272,0-2.395-0.093-3.339-0.275c-0.951-0.185-1.719-0.387-2.351-0.616
			c-0.774-0.297-1.421-0.629-1.937-0.993l-0.422-0.298V0.659l5.163-0.581v11.183c0.136-0.068,0.272-0.134,0.41-0.197
			c0.538-0.269,1.179-0.533,1.878-0.771c0.762-0.259,1.536-0.39,2.302-0.39c1.215,0,2.383,0.241,3.471,0.718
			c1.097,0.481,2.07,1.209,2.892,2.165c0.81,0.943,1.454,2.137,1.915,3.55c0.454,1.39,0.683,3.04,0.683,4.906
			c0,2.074-0.298,3.859-0.885,5.308c-0.597,1.47-1.417,2.68-2.437,3.596c-1.012,0.91-2.181,1.58-3.474,1.991
			C146.874,32.537,145.573,32.739,144.261,32.739z M138.205,29.489c0.306,0.172,0.662,0.336,1.064,0.491
			c0.509,0.185,1.198,0.364,2.032,0.527c0.819,0.158,1.815,0.239,2.959,0.239c1.106,0,2.204-0.171,3.264-0.508
			c1.022-0.325,1.945-0.855,2.746-1.574c0.794-0.713,1.44-1.676,1.922-2.863c0.49-1.209,0.739-2.742,0.739-4.558
			c0-1.655-0.197-3.098-0.585-4.287c-0.38-1.162-0.895-2.127-1.532-2.869c-0.625-0.727-1.359-1.278-2.18-1.638
			c-0.834-0.365-1.732-0.55-2.671-0.55c-0.547,0-1.106,0.096-1.66,0.284c-0.614,0.209-1.172,0.438-1.659,0.681
			c-0.612,0.282-1.176,0.601-1.706,0.962l-1.558,1.063V2.309l-1.176,0.132V29.489z M144.261,29.966
			c-0.575,0-1.122-0.037-1.627-0.109c-0.492-0.07-0.954-0.155-1.374-0.254c-0.439-0.103-0.857-0.229-1.24-0.377l-0.639-0.246V15.327
			l0.435-0.297c0.611-0.417,1.245-0.797,1.884-1.13c0.55-0.303,1.168-0.583,1.819-0.824c1.825-0.673,3.534-0.482,4.843,0.492
			c0.727,0.542,1.343,1.242,1.832,2.081c0.475,0.817,0.826,1.749,1.044,2.77c0.212,0.988,0.319,1.992,0.319,2.982
			c0,1.227-0.107,2.356-0.319,3.357c-0.226,1.07-0.622,2.003-1.177,2.773c-0.581,0.808-1.377,1.428-2.364,1.842
			C146.76,29.766,145.604,29.966,144.261,29.966z M141.375,27.575c0.11,0.03,0.224,0.059,0.339,0.086
			c0.363,0.085,0.767,0.16,1.202,0.222c0.412,0.059,0.865,0.089,1.345,0.089c1.076,0,1.973-0.147,2.666-0.437
			c0.652-0.274,1.148-0.656,1.517-1.169c0.392-0.544,0.676-1.224,0.844-2.021c0.183-0.865,0.276-1.856,0.276-2.944
			c0-0.85-0.092-1.713-0.275-2.564c-0.175-0.816-0.45-1.551-0.818-2.185c-0.353-0.605-0.79-1.105-1.299-1.485
			c-0.448-0.333-0.96-0.496-1.564-0.496c-0.433,0-0.903,0.093-1.398,0.275c-0.557,0.206-1.086,0.446-1.568,0.711
			c-0.434,0.227-0.856,0.471-1.266,0.733V27.575z" />
    </g>
    <g>
      <path fill="#fff" d="M169.184,29.365c-1.242,0.713-2.397,1.288-3.467,1.723c-1.07,0.436-2.225,0.654-3.467,0.654
			c-1.77,0-3.177-0.43-4.22-1.288c-1.044-0.858-1.565-2.278-1.565-4.259c0-1.03,0.263-1.928,0.792-2.694
			c0.528-0.766,1.222-1.407,2.08-1.922c0.858-0.515,1.829-0.917,2.912-1.208c1.083-0.29,2.192-0.475,3.328-0.555
			c0.475-0.053,1.096-0.099,1.862-0.139c0.766-0.04,1.36-0.072,1.783-0.099c0-0.924-0.027-1.75-0.08-2.476
			c-0.053-0.726-0.212-1.347-0.475-1.862c-0.264-0.515-0.654-0.905-1.169-1.169c-0.515-0.264-1.248-0.396-2.199-0.396
			c-0.766,0-1.506,0.047-2.219,0.139c-0.713,0.093-1.347,0.192-1.902,0.297c-0.661,0.133-1.268,0.277-1.823,0.436l-0.634-2.734
			c0.66-0.158,1.373-0.303,2.14-0.436c0.66-0.132,1.426-0.244,2.298-0.337c0.871-0.092,1.809-0.139,2.813-0.139
			c1.347,0,2.437,0.198,3.269,0.594c0.832,0.396,1.479,0.931,1.941,1.605c0.462,0.674,0.779,1.44,0.951,2.298
			c0.172,0.859,0.258,1.763,0.258,2.714v9.509c0,0.37,0.006,0.76,0.02,1.169c0.013,0.41,0.04,0.812,0.079,1.209
			c0.04,0.396,0.086,0.806,0.139,1.228l-3.051,0.317L169.184,29.365z M169.223,22.075c-0.529,0.027-1.03,0.053-1.506,0.079
			c-0.475,0.027-0.945,0.059-1.407,0.099c-0.462,0.04-0.879,0.086-1.248,0.139c-1.902,0.238-3.249,0.654-4.042,1.248
			c-0.792,0.594-1.188,1.446-1.188,2.556c0,0.925,0.283,1.618,0.852,2.08c0.568,0.463,1.314,0.694,2.239,0.694
			c1.268,0,2.397-0.218,3.388-0.654c0.991-0.436,1.961-1.01,2.912-1.724V22.075z" />
      <path fill="#fff" d="M162.25,32.739c-1.999,0-3.631-0.51-4.853-1.515c-1.279-1.052-1.928-2.744-1.928-5.029
			c0-1.232,0.326-2.329,0.969-3.261c0.607-0.88,1.41-1.624,2.387-2.21c0.931-0.559,1.996-1.002,3.166-1.317
			c1.135-0.304,2.311-0.501,3.498-0.585c0.495-0.054,1.135-0.102,1.9-0.141c0.303-0.016,0.579-0.03,0.828-0.044
			c-0.012-0.528-0.034-1.018-0.067-1.464c-0.043-0.589-0.167-1.087-0.368-1.48c-0.168-0.327-0.409-0.568-0.737-0.736
			c-0.255-0.131-0.765-0.286-1.744-0.286c-0.717,0-1.421,0.044-2.091,0.13c-0.692,0.09-1.312,0.187-1.844,0.288
			c-0.626,0.126-1.213,0.266-1.735,0.415l-1.008,0.288l-1.094-4.719l0.962-0.231c0.672-0.162,1.413-0.312,2.203-0.449
			c0.659-0.132,1.462-0.25,2.362-0.346c0.904-0.096,1.886-0.144,2.919-0.144c1.511,0,2.721,0.226,3.697,0.691
			c0.989,0.471,1.774,1.124,2.335,1.941c0.536,0.782,0.908,1.679,1.106,2.666c0.184,0.92,0.277,1.899,0.277,2.91v9.509
			c0,0.36,0.006,0.738,0.019,1.136c0.012,0.384,0.037,0.767,0.075,1.143c0.039,0.388,0.084,0.789,0.136,1.203l0.127,1.011
			l-4.982,0.518l-0.314-1.726c-0.824,0.433-1.614,0.803-2.358,1.106C164.909,32.494,163.616,32.739,162.25,32.739z M165.301,12.678
			c1.121,0,1.989,0.165,2.653,0.506c0.702,0.36,1.241,0.899,1.601,1.601c0.324,0.633,0.52,1.388,0.583,2.245
			c0.055,0.749,0.082,1.607,0.082,2.549v0.936l-0.934,0.059c-0.426,0.027-1.024,0.06-1.794,0.1
			c-0.738,0.038-1.345,0.083-1.804,0.134l-0.04,0.004c-1.066,0.074-2.122,0.25-3.14,0.523c-0.991,0.266-1.885,0.637-2.657,1.101
			c-0.732,0.439-1.328,0.989-1.773,1.633c-0.415,0.601-0.616,1.297-0.616,2.128c0,1.66,0.404,2.834,1.201,3.489
			c0.856,0.704,2.063,1.061,3.587,1.061c1.107,0,2.146-0.195,3.09-0.58c1.024-0.417,2.15-0.977,3.347-1.665l1.224-0.703l0.484,2.66
			l1.13-0.117c-0.009-0.081-0.017-0.162-0.025-0.242c-0.042-0.42-0.07-0.849-0.083-1.276c-0.014-0.419-0.02-0.82-0.02-1.2v-9.509
			c0-0.88-0.08-1.728-0.238-2.519c-0.145-0.721-0.412-1.371-0.796-1.93c-0.365-0.531-0.871-0.946-1.548-1.269
			c-0.693-0.33-1.649-0.497-2.84-0.497c-0.963,0-1.874,0.045-2.708,0.133c-0.84,0.089-1.583,0.198-2.208,0.323
			c-0.398,0.069-0.777,0.14-1.137,0.214l0.176,0.758c0.285-0.067,0.581-0.131,0.887-0.192c0.579-0.11,1.238-0.213,1.969-0.308
			C163.709,12.727,164.498,12.678,165.301,12.678z M162.923,29.966c-1.156,0-2.121-0.309-2.868-0.917
			c-0.809-0.657-1.219-1.617-1.219-2.853c0-1.415,0.549-2.574,1.587-3.353c0.941-0.706,2.419-1.177,4.516-1.44
			c0.371-0.053,0.809-0.102,1.286-0.143c0.472-0.04,0.951-0.074,1.436-0.101c0.479-0.026,0.981-0.053,1.512-0.079l1.047-0.053v6.063
			l-0.399,0.299c-1.007,0.755-2.053,1.374-3.109,1.839C165.6,29.717,164.325,29.966,162.923,29.966z M168.227,23.125
			c-0.154,0.008-0.306,0.016-0.455,0.024c-0.464,0.026-0.923,0.058-1.376,0.097c-0.44,0.038-0.841,0.082-1.193,0.132
			c-2.159,0.27-3.139,0.725-3.584,1.059c-0.539,0.404-0.79,0.963-0.79,1.758c0,0.819,0.276,1.138,0.483,1.306
			c0.389,0.317,0.915,0.47,1.61,0.47c1.123,0,2.128-0.191,2.986-0.569c0.779-0.343,1.557-0.786,2.317-1.32V23.125z" />
    </g>
    <g>
      <path fill="#fff" d="M188.321,14.546c-1.11-0.343-2.094-0.575-2.952-0.694c-0.859-0.119-1.644-0.178-2.358-0.178
			c-0.925,0-1.698,0.225-2.318,0.674c-0.621,0.45-0.931,1.03-0.931,1.743c0.026,0.634,0.305,1.176,0.835,1.624
			c0.53,0.45,1.147,0.852,1.85,1.209c0.702,0.357,1.485,0.747,2.347,1.169c0.862,0.423,1.67,0.898,2.426,1.426
			c0.756,0.529,1.372,1.163,1.85,1.902c0.477,0.74,0.729,1.625,0.756,2.655c-0.027,1.109-0.272,2.028-0.736,2.754
			c-0.464,0.727-1.06,1.308-1.788,1.743c-0.729,0.436-1.517,0.739-2.364,0.911c-0.848,0.171-1.642,0.257-2.384,0.257
			c-0.954,0-1.941-0.053-2.961-0.158c-1.02-0.106-2.113-0.331-3.278-0.674l0.594-2.853c1.189,0.317,2.271,0.548,3.249,0.693
			c0.977,0.146,1.783,0.218,2.417,0.218c0.475,0,0.944-0.053,1.407-0.158c0.462-0.105,0.878-0.258,1.248-0.456
			c0.37-0.198,0.667-0.456,0.892-0.773c0.224-0.317,0.337-0.674,0.337-1.07c-0.027-0.739-0.277-1.367-0.753-1.882
			c-0.476-0.515-1.09-0.977-1.843-1.387c-0.753-0.409-1.559-0.818-2.417-1.228c-0.859-0.409-1.664-0.885-2.417-1.426
			c-0.753-0.541-1.381-1.189-1.882-1.942c-0.502-0.753-0.753-1.684-0.753-2.793c0-0.792,0.204-1.499,0.614-2.12
			c0.409-0.62,0.937-1.135,1.585-1.545c0.647-0.409,1.36-0.726,2.139-0.951c0.779-0.224,1.539-0.337,2.278-0.337
			c0.766,0,1.625,0.059,2.575,0.178c0.951,0.119,2.047,0.337,3.289,0.654L188.321,14.546z" />
      <path fill="#fff" d="M182.555,32.739c-0.979,0-2.01-0.055-3.064-0.164c-1.075-0.112-2.238-0.35-3.457-0.709l-0.882-0.26
			l0.997-4.784l1.018,0.272c1.149,0.306,2.204,0.532,3.138,0.67c0.923,0.137,1.687,0.207,2.271,0.207
			c0.399,0,0.798-0.045,1.184-0.133c0.372-0.085,0.708-0.207,1-0.363c0.233-0.125,0.412-0.279,0.548-0.47
			c0.101-0.143,0.15-0.295,0.153-0.477c-0.021-0.49-0.181-0.89-0.489-1.223c-0.398-0.431-0.933-0.831-1.587-1.187
			c-0.731-0.397-1.529-0.803-2.37-1.204c-0.906-0.431-1.771-0.942-2.569-1.516c-0.847-0.609-1.564-1.349-2.129-2.198
			c-0.611-0.916-0.92-2.042-0.92-3.346c0-0.988,0.262-1.886,0.779-2.669c0.485-0.736,1.119-1.354,1.884-1.838
			c0.724-0.458,1.53-0.817,2.396-1.067c0.866-0.249,1.725-0.376,2.554-0.376c0.804,0,1.712,0.063,2.699,0.186
			c0.988,0.123,2.136,0.351,3.412,0.677l0.914,0.233l-0.951,4.825l-1.058-0.327c-1.055-0.326-1.995-0.548-2.794-0.658
			c-0.81-0.112-1.557-0.169-2.221-0.169c-0.716,0-1.283,0.158-1.734,0.484c-0.357,0.258-0.513,0.533-0.518,0.915
			c0.019,0.346,0.169,0.619,0.482,0.884c0.468,0.397,1.025,0.76,1.657,1.081c0.699,0.355,1.478,0.743,2.335,1.163
			c0.902,0.443,1.762,0.949,2.558,1.504c0.859,0.601,1.571,1.333,2.116,2.178c0.576,0.893,0.884,1.959,0.915,3.17l0.001,0.025
			l-0.001,0.025c-0.031,1.288-0.331,2.387-0.892,3.266c-0.545,0.854-1.257,1.548-2.116,2.062c-0.822,0.491-1.723,0.839-2.678,1.033
			C184.226,32.646,183.358,32.739,182.555,32.739z M177.483,30.195c0.778,0.192,1.519,0.326,2.213,0.398
			c0.985,0.102,1.947,0.153,2.859,0.153c0.671,0,1.406-0.08,2.187-0.238c0.733-0.149,1.423-0.415,2.05-0.79
			c0.599-0.359,1.077-0.824,1.459-1.424c0.359-0.563,0.554-1.309,0.579-2.217c-0.025-0.84-0.22-1.532-0.597-2.116
			c-0.405-0.627-0.937-1.174-1.583-1.625c-0.712-0.497-1.484-0.951-2.294-1.348c-0.866-0.424-1.653-0.817-2.359-1.175
			c-0.77-0.391-1.458-0.841-2.043-1.337c-0.738-0.625-1.149-1.435-1.186-2.344l-0.001-0.041c0-1.033,0.465-1.915,1.344-2.551
			c0.792-0.573,1.768-0.863,2.902-0.863c0.754,0,1.593,0.063,2.494,0.188c0.62,0.086,1.305,0.228,2.047,0.423l0.16-0.811
			c-0.829-0.189-1.583-0.326-2.25-0.409c-0.905-0.113-1.73-0.171-2.452-0.171c-0.642,0-1.316,0.1-2.003,0.298
			c-0.685,0.197-1.318,0.479-1.883,0.835c-0.531,0.336-0.952,0.746-1.286,1.252c-0.302,0.458-0.449,0.972-0.449,1.571
			c0,0.904,0.197,1.658,0.585,2.241c0.433,0.65,0.983,1.217,1.635,1.685c0.702,0.505,1.464,0.955,2.263,1.335
			c0.873,0.417,1.702,0.838,2.464,1.253c0.846,0.461,1.552,0.994,2.099,1.586c0.639,0.693,0.981,1.542,1.017,2.522l0.001,0.036
			c0,0.604-0.175,1.158-0.52,1.645c-0.315,0.444-0.73,0.805-1.235,1.076c-0.45,0.24-0.953,0.425-1.497,0.549
			c-0.531,0.122-1.079,0.183-1.628,0.183c-0.682,0-1.544-0.077-2.564-0.228c-0.721-0.107-1.504-0.261-2.338-0.459L177.483,30.195z" />
    </g>
    <g>
      <path fill="#fff" d="M208.37,30.752c-0.608,0.185-1.235,0.344-1.882,0.476c-0.648,0.132-1.361,0.251-2.14,0.357
			c-0.779,0.105-1.591,0.158-2.437,0.158c-1.321,0-2.549-0.185-3.685-0.554c-1.136-0.37-2.127-0.964-2.972-1.783
			c-0.846-0.818-1.512-1.882-2.001-3.19c-0.489-1.308-0.733-2.912-0.733-4.814c0-1.717,0.238-3.229,0.713-4.537
			c0.476-1.307,1.129-2.403,1.961-3.289c0.832-0.885,1.809-1.552,2.932-2.001c1.122-0.449,2.344-0.674,3.665-0.674
			c1.294,0,2.417,0.251,3.368,0.753c0.951,0.502,1.737,1.183,2.358,2.041c0.62,0.859,1.083,1.862,1.387,3.011
			c0.303,1.149,0.456,2.358,0.456,3.626l-0.594,1.743h-12.798c0,0.819,0.105,1.638,0.317,2.457c0.211,0.819,0.575,1.559,1.09,2.219
			c0.515,0.661,1.189,1.195,2.021,1.605c0.832,0.41,1.868,0.614,3.11,0.614c0.792,0,1.519-0.046,2.179-0.139
			c0.66-0.092,1.235-0.198,1.724-0.317c0.488-0.119,0.944-0.258,1.367-0.416L208.37,30.752z M206.072,19.539
			c0-0.184-0.04-0.594-0.119-1.228c-0.079-0.634-0.264-1.294-0.554-1.981c-0.291-0.687-0.74-1.301-1.347-1.842
			c-0.608-0.541-1.414-0.812-2.417-0.812c-1.109,0-2.021,0.232-2.734,0.693c-0.713,0.463-1.282,1.011-1.704,1.644
			c-0.423,0.634-0.713,1.282-0.871,1.942c-0.159,0.661-0.238,1.189-0.238,1.585H206.072z" />
      <path fill="#fff" d="M201.911,32.739c-1.42,0-2.763-0.203-3.993-0.603c-1.276-0.416-2.406-1.093-3.357-2.015
			c-0.948-0.918-1.702-2.115-2.241-3.557c-0.528-1.412-0.796-3.15-0.796-5.163c0-1.825,0.26-3.466,0.773-4.877
			c0.52-1.429,1.25-2.65,2.172-3.631c0.929-0.987,2.035-1.742,3.288-2.244c1.236-0.494,2.593-0.745,4.035-0.745
			c1.451,0,2.741,0.292,3.833,0.868c1.083,0.572,1.991,1.358,2.7,2.338c0.69,0.955,1.209,2.079,1.543,3.341
			c0.324,1.229,0.489,2.534,0.489,3.881v0.165l-0.877,2.575h-12.457c0.047,0.404,0.123,0.809,0.227,1.21
			c0.176,0.683,0.482,1.307,0.91,1.855c0.42,0.539,0.983,0.984,1.675,1.324c0.689,0.339,1.588,0.511,2.67,0.511
			c0.746,0,1.432-0.043,2.04-0.129c0.627-0.088,1.174-0.188,1.627-0.299c0.448-0.109,0.87-0.238,1.253-0.381l1.072-0.401
			l1.046,4.673l-0.884,0.269c-0.633,0.193-1.297,0.361-1.973,0.499c-0.67,0.136-1.411,0.26-2.205,0.368
			C203.658,32.683,202.794,32.739,201.911,32.739z M201.793,11.898c-1.187,0-2.296,0.203-3.295,0.602
			c-0.981,0.393-1.848,0.984-2.576,1.758c-0.735,0.782-1.324,1.774-1.751,2.947c-0.433,1.192-0.653,2.604-0.653,4.196
			c0,1.774,0.225,3.277,0.67,4.465c0.435,1.163,1.027,2.112,1.761,2.823c0.731,0.709,1.602,1.23,2.587,1.551
			c1.031,0.335,2.167,0.506,3.376,0.506c0.794,0,1.568-0.05,2.303-0.149c0.75-0.102,1.448-0.218,2.075-0.346
			c0.304-0.062,0.605-0.131,0.901-0.205l-0.149-0.666c-0.13,0.035-0.262,0.07-0.396,0.103c-0.518,0.126-1.13,0.239-1.822,0.335
			c-0.7,0.098-1.479,0.148-2.317,0.148c-1.391,0-2.586-0.241-3.551-0.716c-0.964-0.474-1.761-1.109-2.367-1.886
			c-0.597-0.764-1.024-1.634-1.269-2.583c-0.231-0.895-0.348-1.805-0.348-2.705v-0.997h13.082l0.31-0.909
			c-0.012-1.117-0.154-2.196-0.421-3.209c-0.271-1.024-0.685-1.926-1.231-2.682c-0.528-0.729-1.206-1.316-2.015-1.743
			C203.893,12.112,202.916,11.898,201.793,11.898z M207.069,20.535H195.09v-0.997c0-0.48,0.087-1.074,0.265-1.818
			c0.185-0.772,0.526-1.533,1.011-2.262c0.495-0.743,1.165-1.392,1.991-1.928c0.875-0.567,1.978-0.854,3.276-0.854
			c1.25,0,2.286,0.358,3.08,1.064c0.716,0.639,1.255,1.378,1.602,2.198c0.326,0.771,0.536,1.527,0.626,2.247
			c0.113,0.9,0.127,1.195,0.127,1.352V20.535z M197.214,18.542h7.763c-0.004-0.035-0.009-0.071-0.013-0.108
			c-0.067-0.538-0.23-1.116-0.484-1.717c-0.231-0.545-0.599-1.046-1.092-1.486c-0.423-0.376-0.997-0.559-1.754-0.559
			c-0.908,0-1.646,0.179-2.192,0.533c-0.595,0.386-1.072,0.844-1.416,1.36c-0.356,0.533-0.602,1.078-0.732,1.621
			C197.263,18.314,197.237,18.433,197.214,18.542z" />
    </g>
  </g>
</svg>